<?xml version="1.0" encoding="utf-8" standalone="no"?>
<!DOCTYPE svg PUBLIC "-//W3C//DTD SVG 1.1//EN"
  "http://www.w3.org/Graphics/SVG/1.1/DTD/svg11.dtd">
<svg xmlns:xlink="http://www.w3.org/1999/xlink" width="408.684908pt" height="325.986375pt" viewBox="0 0 408.684908 325.986375" xmlns="http://www.w3.org/2000/svg" version="1.1">
 <metadata>
  <rdf:RDF xmlns:dc="http://purl.org/dc/elements/1.1/" xmlns:cc="http://creativecommons.org/ns#" xmlns:rdf="http://www.w3.org/1999/02/22-rdf-syntax-ns#">
   <cc:Work>
    <dc:type rdf:resource="http://purl.org/dc/dcmitype/StillImage"/>
    <dc:date>2023-06-02T15:30:22.841331</dc:date>
    <dc:format>image/svg+xml</dc:format>
    <dc:creator>
     <cc:Agent>
      <dc:title>Matplotlib v3.7.1, https://matplotlib.org/</dc:title>
     </cc:Agent>
    </dc:creator>
   </cc:Work>
  </rdf:RDF>
 </metadata>
 <defs>
  <style type="text/css">*{stroke-linejoin: round; stroke-linecap: butt}</style>
 </defs>
 <g id="figure_1">
  <g id="patch_1">
   <path d="M 0 325.986375 
L 408.684908 325.986375 
L 408.684908 0 
L 0 0 
z
" style="fill: #ffffff"/>
  </g>
  <g id="axes_1">
   <g id="patch_2">
    <path d="M 34.240625 288.430125 
L 391.360625 288.430125 
L 391.360625 22.318125 
L 34.240625 22.318125 
z
" style="fill: #ffffff"/>
   </g>
   <g id="patch_3">
    <path d="M 50.473352 288.430125 
L 56.966443 288.430125 
L 56.966443 203.950125 
L 50.473352 203.950125 
z
" clip-path="url(#pd9abcd3117)" style="fill: #1f77b4; fill-opacity: 0.5; stroke: #000000; stroke-width: 0.649309; stroke-linejoin: miter"/>
   </g>
   <g id="patch_4">
    <path d="M 56.966443 288.430125 
L 63.459534 288.430125 
L 63.459534 260.270125 
L 56.966443 260.270125 
z
" clip-path="url(#pd9abcd3117)" style="fill: #1f77b4; fill-opacity: 0.5; stroke: #000000; stroke-width: 0.649309; stroke-linejoin: miter"/>
   </g>
   <g id="patch_5">
    <path d="M 63.459534 288.430125 
L 69.952625 288.430125 
L 69.952625 232.110125 
L 63.459534 232.110125 
z
" clip-path="url(#pd9abcd3117)" style="fill: #1f77b4; fill-opacity: 0.5; stroke: #000000; stroke-width: 0.649309; stroke-linejoin: miter"/>
   </g>
   <g id="patch_6">
    <path d="M 69.952625 288.430125 
L 76.445716 288.430125 
L 76.445716 260.270125 
L 69.952625 260.270125 
z
" clip-path="url(#pd9abcd3117)" style="fill: #1f77b4; fill-opacity: 0.5; stroke: #000000; stroke-width: 0.649309; stroke-linejoin: miter"/>
   </g>
   <g id="patch_7">
    <path d="M 76.445716 288.430125 
L 82.938807 288.430125 
L 82.938807 232.110125 
L 76.445716 232.110125 
z
" clip-path="url(#pd9abcd3117)" style="fill: #1f77b4; fill-opacity: 0.5; stroke: #000000; stroke-width: 0.649309; stroke-linejoin: miter"/>
   </g>
   <g id="patch_8">
    <path d="M 82.938807 288.430125 
L 89.431898 288.430125 
L 89.431898 203.950125 
L 82.938807 203.950125 
z
" clip-path="url(#pd9abcd3117)" style="fill: #1f77b4; fill-opacity: 0.5; stroke: #000000; stroke-width: 0.649309; stroke-linejoin: miter"/>
   </g>
   <g id="patch_9">
    <path d="M 89.431898 288.430125 
L 95.924989 288.430125 
L 95.924989 119.470125 
L 89.431898 119.470125 
z
" clip-path="url(#pd9abcd3117)" style="fill: #1f77b4; fill-opacity: 0.5; stroke: #000000; stroke-width: 0.649309; stroke-linejoin: miter"/>
   </g>
   <g id="patch_10">
    <path d="M 95.924989 288.430125 
L 102.41808 288.430125 
L 102.41808 175.790125 
L 95.924989 175.790125 
z
" clip-path="url(#pd9abcd3117)" style="fill: #1f77b4; fill-opacity: 0.5; stroke: #000000; stroke-width: 0.649309; stroke-linejoin: miter"/>
   </g>
   <g id="patch_11">
    <path d="M 102.41808 288.430125 
L 108.91117 288.430125 
L 108.91117 147.630125 
L 102.41808 147.630125 
z
" clip-path="url(#pd9abcd3117)" style="fill: #1f77b4; fill-opacity: 0.5; stroke: #000000; stroke-width: 0.649309; stroke-linejoin: miter"/>
   </g>
   <g id="patch_12">
    <path d="M 108.91117 288.430125 
L 115.404261 288.430125 
L 115.404261 232.110125 
L 108.91117 232.110125 
z
" clip-path="url(#pd9abcd3117)" style="fill: #1f77b4; fill-opacity: 0.5; stroke: #000000; stroke-width: 0.649309; stroke-linejoin: miter"/>
   </g>
   <g id="patch_13">
    <path d="M 115.404261 288.430125 
L 121.897352 288.430125 
L 121.897352 119.470125 
L 115.404261 119.470125 
z
" clip-path="url(#pd9abcd3117)" style="fill: #1f77b4; fill-opacity: 0.5; stroke: #000000; stroke-width: 0.649309; stroke-linejoin: miter"/>
   </g>
   <g id="patch_14">
    <path d="M 121.897352 288.430125 
L 128.390443 288.430125 
L 128.390443 34.990125 
L 121.897352 34.990125 
z
" clip-path="url(#pd9abcd3117)" style="fill: #1f77b4; fill-opacity: 0.5; stroke: #000000; stroke-width: 0.649309; stroke-linejoin: miter"/>
   </g>
   <g id="patch_15">
    <path d="M 128.390443 288.430125 
L 134.883534 288.430125 
L 134.883534 175.790125 
L 128.390443 175.790125 
z
" clip-path="url(#pd9abcd3117)" style="fill: #1f77b4; fill-opacity: 0.5; stroke: #000000; stroke-width: 0.649309; stroke-linejoin: miter"/>
   </g>
   <g id="patch_16">
    <path d="M 134.883534 288.430125 
L 141.376625 288.430125 
L 141.376625 203.950125 
L 134.883534 203.950125 
z
" clip-path="url(#pd9abcd3117)" style="fill: #1f77b4; fill-opacity: 0.5; stroke: #000000; stroke-width: 0.649309; stroke-linejoin: miter"/>
   </g>
   <g id="patch_17">
    <path d="M 141.376625 288.430125 
L 147.869716 288.430125 
L 147.869716 203.950125 
L 141.376625 203.950125 
z
" clip-path="url(#pd9abcd3117)" style="fill: #1f77b4; fill-opacity: 0.5; stroke: #000000; stroke-width: 0.649309; stroke-linejoin: miter"/>
   </g>
   <g id="patch_18">
    <path d="M 147.869716 288.430125 
L 154.362807 288.430125 
L 154.362807 203.950125 
L 147.869716 203.950125 
z
" clip-path="url(#pd9abcd3117)" style="fill: #1f77b4; fill-opacity: 0.5; stroke: #000000; stroke-width: 0.649309; stroke-linejoin: miter"/>
   </g>
   <g id="patch_19">
    <path d="M 154.362807 288.430125 
L 160.855898 288.430125 
L 160.855898 147.630125 
L 154.362807 147.630125 
z
" clip-path="url(#pd9abcd3117)" style="fill: #1f77b4; fill-opacity: 0.5; stroke: #000000; stroke-width: 0.649309; stroke-linejoin: miter"/>
   </g>
   <g id="patch_20">
    <path d="M 160.855898 288.430125 
L 167.348989 288.430125 
L 167.348989 232.110125 
L 160.855898 232.110125 
z
" clip-path="url(#pd9abcd3117)" style="fill: #1f77b4; fill-opacity: 0.5; stroke: #000000; stroke-width: 0.649309; stroke-linejoin: miter"/>
   </g>
   <g id="patch_21">
    <path d="M 167.348989 288.430125 
L 173.84208 288.430125 
L 173.84208 260.270125 
L 167.348989 260.270125 
z
" clip-path="url(#pd9abcd3117)" style="fill: #1f77b4; fill-opacity: 0.5; stroke: #000000; stroke-width: 0.649309; stroke-linejoin: miter"/>
   </g>
   <g id="patch_22">
    <path d="M 173.84208 288.430125 
L 180.33517 288.430125 
L 180.33517 175.790125 
L 173.84208 175.790125 
z
" clip-path="url(#pd9abcd3117)" style="fill: #1f77b4; fill-opacity: 0.5; stroke: #000000; stroke-width: 0.649309; stroke-linejoin: miter"/>
   </g>
   <g id="patch_23">
    <path d="M 180.33517 288.430125 
L 186.828261 288.430125 
L 186.828261 203.950125 
L 180.33517 203.950125 
z
" clip-path="url(#pd9abcd3117)" style="fill: #1f77b4; fill-opacity: 0.5; stroke: #000000; stroke-width: 0.649309; stroke-linejoin: miter"/>
   </g>
   <g id="patch_24">
    <path d="M 186.828261 288.430125 
L 193.321352 288.430125 
L 193.321352 232.110125 
L 186.828261 232.110125 
z
" clip-path="url(#pd9abcd3117)" style="fill: #1f77b4; fill-opacity: 0.5; stroke: #000000; stroke-width: 0.649309; stroke-linejoin: miter"/>
   </g>
   <g id="patch_25">
    <path d="M 193.321352 288.430125 
L 199.814443 288.430125 
L 199.814443 260.270125 
L 193.321352 260.270125 
z
" clip-path="url(#pd9abcd3117)" style="fill: #1f77b4; fill-opacity: 0.5; stroke: #000000; stroke-width: 0.649309; stroke-linejoin: miter"/>
   </g>
   <g id="patch_26">
    <path d="M 199.814443 288.430125 
L 206.307534 288.430125 
L 206.307534 232.110125 
L 199.814443 232.110125 
z
" clip-path="url(#pd9abcd3117)" style="fill: #1f77b4; fill-opacity: 0.5; stroke: #000000; stroke-width: 0.649309; stroke-linejoin: miter"/>
   </g>
   <g id="patch_27">
    <path d="M 206.307534 288.430125 
L 212.800625 288.430125 
L 212.800625 232.110125 
L 206.307534 232.110125 
z
" clip-path="url(#pd9abcd3117)" style="fill: #1f77b4; fill-opacity: 0.5; stroke: #000000; stroke-width: 0.649309; stroke-linejoin: miter"/>
   </g>
   <g id="patch_28">
    <path d="M 212.800625 288.430125 
L 219.293716 288.430125 
L 219.293716 147.630125 
L 212.800625 147.630125 
z
" clip-path="url(#pd9abcd3117)" style="fill: #1f77b4; fill-opacity: 0.5; stroke: #000000; stroke-width: 0.649309; stroke-linejoin: miter"/>
   </g>
   <g id="patch_29">
    <path d="M 219.293716 288.430125 
L 225.786807 288.430125 
L 225.786807 260.270125 
L 219.293716 260.270125 
z
" clip-path="url(#pd9abcd3117)" style="fill: #1f77b4; fill-opacity: 0.5; stroke: #000000; stroke-width: 0.649309; stroke-linejoin: miter"/>
   </g>
   <g id="patch_30">
    <path d="M 225.786807 288.430125 
L 232.279898 288.430125 
L 232.279898 288.430125 
L 225.786807 288.430125 
z
" clip-path="url(#pd9abcd3117)" style="fill: #1f77b4; fill-opacity: 0.5; stroke: #000000; stroke-width: 0.649309; stroke-linejoin: miter"/>
   </g>
   <g id="patch_31">
    <path d="M 232.279898 288.430125 
L 238.772989 288.430125 
L 238.772989 232.110125 
L 232.279898 232.110125 
z
" clip-path="url(#pd9abcd3117)" style="fill: #1f77b4; fill-opacity: 0.5; stroke: #000000; stroke-width: 0.649309; stroke-linejoin: miter"/>
   </g>
   <g id="patch_32">
    <path d="M 238.772989 288.430125 
L 245.26608 288.430125 
L 245.26608 260.270125 
L 238.772989 260.270125 
z
" clip-path="url(#pd9abcd3117)" style="fill: #1f77b4; fill-opacity: 0.5; stroke: #000000; stroke-width: 0.649309; stroke-linejoin: miter"/>
   </g>
   <g id="patch_33">
    <path d="M 245.26608 288.430125 
L 251.75917 288.430125 
L 251.75917 260.270125 
L 245.26608 260.270125 
z
" clip-path="url(#pd9abcd3117)" style="fill: #1f77b4; fill-opacity: 0.5; stroke: #000000; stroke-width: 0.649309; stroke-linejoin: miter"/>
   </g>
   <g id="patch_34">
    <path d="M 251.75917 288.430125 
L 258.252261 288.430125 
L 258.252261 288.430125 
L 251.75917 288.430125 
z
" clip-path="url(#pd9abcd3117)" style="fill: #1f77b4; fill-opacity: 0.5; stroke: #000000; stroke-width: 0.649309; stroke-linejoin: miter"/>
   </g>
   <g id="patch_35">
    <path d="M 258.252261 288.430125 
L 264.745352 288.430125 
L 264.745352 260.270125 
L 258.252261 260.270125 
z
" clip-path="url(#pd9abcd3117)" style="fill: #1f77b4; fill-opacity: 0.5; stroke: #000000; stroke-width: 0.649309; stroke-linejoin: miter"/>
   </g>
   <g id="patch_36">
    <path d="M 264.745352 288.430125 
L 271.238443 288.430125 
L 271.238443 232.110125 
L 264.745352 232.110125 
z
" clip-path="url(#pd9abcd3117)" style="fill: #1f77b4; fill-opacity: 0.5; stroke: #000000; stroke-width: 0.649309; stroke-linejoin: miter"/>
   </g>
   <g id="patch_37">
    <path d="M 271.238443 288.430125 
L 277.731534 288.430125 
L 277.731534 288.430125 
L 271.238443 288.430125 
z
" clip-path="url(#pd9abcd3117)" style="fill: #1f77b4; fill-opacity: 0.5; stroke: #000000; stroke-width: 0.649309; stroke-linejoin: miter"/>
   </g>
   <g id="patch_38">
    <path d="M 277.731534 288.430125 
L 284.224625 288.430125 
L 284.224625 260.270125 
L 277.731534 260.270125 
z
" clip-path="url(#pd9abcd3117)" style="fill: #1f77b4; fill-opacity: 0.5; stroke: #000000; stroke-width: 0.649309; stroke-linejoin: miter"/>
   </g>
   <g id="patch_39">
    <path d="M 284.224625 288.430125 
L 290.717716 288.430125 
L 290.717716 232.110125 
L 284.224625 232.110125 
z
" clip-path="url(#pd9abcd3117)" style="fill: #1f77b4; fill-opacity: 0.5; stroke: #000000; stroke-width: 0.649309; stroke-linejoin: miter"/>
   </g>
   <g id="patch_40">
    <path d="M 290.717716 288.430125 
L 297.210807 288.430125 
L 297.210807 260.270125 
L 290.717716 260.270125 
z
" clip-path="url(#pd9abcd3117)" style="fill: #1f77b4; fill-opacity: 0.5; stroke: #000000; stroke-width: 0.649309; stroke-linejoin: miter"/>
   </g>
   <g id="patch_41">
    <path d="M 297.210807 288.430125 
L 303.703898 288.430125 
L 303.703898 260.270125 
L 297.210807 260.270125 
z
" clip-path="url(#pd9abcd3117)" style="fill: #1f77b4; fill-opacity: 0.5; stroke: #000000; stroke-width: 0.649309; stroke-linejoin: miter"/>
   </g>
   <g id="patch_42">
    <path d="M 303.703898 288.430125 
L 310.196989 288.430125 
L 310.196989 260.270125 
L 303.703898 260.270125 
z
" clip-path="url(#pd9abcd3117)" style="fill: #1f77b4; fill-opacity: 0.5; stroke: #000000; stroke-width: 0.649309; stroke-linejoin: miter"/>
   </g>
   <g id="patch_43">
    <path d="M 310.196989 288.430125 
L 316.69008 288.430125 
L 316.69008 288.430125 
L 310.196989 288.430125 
z
" clip-path="url(#pd9abcd3117)" style="fill: #1f77b4; fill-opacity: 0.5; stroke: #000000; stroke-width: 0.649309; stroke-linejoin: miter"/>
   </g>
   <g id="patch_44">
    <path d="M 316.69008 288.430125 
L 323.18317 288.430125 
L 323.18317 288.430125 
L 316.69008 288.430125 
z
" clip-path="url(#pd9abcd3117)" style="fill: #1f77b4; fill-opacity: 0.5; stroke: #000000; stroke-width: 0.649309; stroke-linejoin: miter"/>
   </g>
   <g id="patch_45">
    <path d="M 323.18317 288.430125 
L 329.676261 288.430125 
L 329.676261 260.270125 
L 323.18317 260.270125 
z
" clip-path="url(#pd9abcd3117)" style="fill: #1f77b4; fill-opacity: 0.5; stroke: #000000; stroke-width: 0.649309; stroke-linejoin: miter"/>
   </g>
   <g id="patch_46">
    <path d="M 329.676261 288.430125 
L 336.169352 288.430125 
L 336.169352 288.430125 
L 329.676261 288.430125 
z
" clip-path="url(#pd9abcd3117)" style="fill: #1f77b4; fill-opacity: 0.5; stroke: #000000; stroke-width: 0.649309; stroke-linejoin: miter"/>
   </g>
   <g id="patch_47">
    <path d="M 336.169352 288.430125 
L 342.662443 288.430125 
L 342.662443 288.430125 
L 336.169352 288.430125 
z
" clip-path="url(#pd9abcd3117)" style="fill: #1f77b4; fill-opacity: 0.5; stroke: #000000; stroke-width: 0.649309; stroke-linejoin: miter"/>
   </g>
   <g id="patch_48">
    <path d="M 342.662443 288.430125 
L 349.155534 288.430125 
L 349.155534 288.430125 
L 342.662443 288.430125 
z
" clip-path="url(#pd9abcd3117)" style="fill: #1f77b4; fill-opacity: 0.5; stroke: #000000; stroke-width: 0.649309; stroke-linejoin: miter"/>
   </g>
   <g id="patch_49">
    <path d="M 349.155534 288.430125 
L 355.648625 288.430125 
L 355.648625 288.430125 
L 349.155534 288.430125 
z
" clip-path="url(#pd9abcd3117)" style="fill: #1f77b4; fill-opacity: 0.5; stroke: #000000; stroke-width: 0.649309; stroke-linejoin: miter"/>
   </g>
   <g id="patch_50">
    <path d="M 355.648625 288.430125 
L 362.141716 288.430125 
L 362.141716 288.430125 
L 355.648625 288.430125 
z
" clip-path="url(#pd9abcd3117)" style="fill: #1f77b4; fill-opacity: 0.5; stroke: #000000; stroke-width: 0.649309; stroke-linejoin: miter"/>
   </g>
   <g id="patch_51">
    <path d="M 362.141716 288.430125 
L 368.634807 288.430125 
L 368.634807 288.430125 
L 362.141716 288.430125 
z
" clip-path="url(#pd9abcd3117)" style="fill: #1f77b4; fill-opacity: 0.5; stroke: #000000; stroke-width: 0.649309; stroke-linejoin: miter"/>
   </g>
   <g id="patch_52">
    <path d="M 368.634807 288.430125 
L 375.127898 288.430125 
L 375.127898 260.270125 
L 368.634807 260.270125 
z
" clip-path="url(#pd9abcd3117)" style="fill: #1f77b4; fill-opacity: 0.5; stroke: #000000; stroke-width: 0.649309; stroke-linejoin: miter"/>
   </g>
   <g id="patch_53">
    <path d="M 50.473352 288.430125 
L 56.966443 288.430125 
L 56.966443 203.950125 
L 50.473352 203.950125 
z
" clip-path="url(#pd9abcd3117)" style="fill: #1f77b4"/>
   </g>
   <g id="patch_54">
    <path d="M 56.966443 288.430125 
L 63.459534 288.430125 
L 63.459534 260.270125 
L 56.966443 260.270125 
z
" clip-path="url(#pd9abcd3117)" style="fill: #1f77b4"/>
   </g>
   <g id="patch_55">
    <path d="M 63.459534 288.430125 
L 69.952625 288.430125 
L 69.952625 232.110125 
L 63.459534 232.110125 
z
" clip-path="url(#pd9abcd3117)" style="fill: #1f77b4"/>
   </g>
   <g id="patch_56">
    <path d="M 69.952625 288.430125 
L 76.445716 288.430125 
L 76.445716 260.270125 
L 69.952625 260.270125 
z
" clip-path="url(#pd9abcd3117)" style="fill: #1f77b4"/>
   </g>
   <g id="patch_57">
    <path d="M 76.445716 288.430125 
L 82.938807 288.430125 
L 82.938807 232.110125 
L 76.445716 232.110125 
z
" clip-path="url(#pd9abcd3117)" style="fill: #1f77b4"/>
   </g>
   <g id="patch_58">
    <path d="M 82.938807 288.430125 
L 89.431898 288.430125 
L 89.431898 203.950125 
L 82.938807 203.950125 
z
" clip-path="url(#pd9abcd3117)" style="fill: #1f77b4"/>
   </g>
   <g id="patch_59">
    <path d="M 89.431898 288.430125 
L 95.924989 288.430125 
L 95.924989 119.470125 
L 89.431898 119.470125 
z
" clip-path="url(#pd9abcd3117)" style="fill: #1f77b4"/>
   </g>
   <g id="patch_60">
    <path d="M 95.924989 288.430125 
L 102.41808 288.430125 
L 102.41808 175.790125 
L 95.924989 175.790125 
z
" clip-path="url(#pd9abcd3117)" style="fill: #1f77b4"/>
   </g>
   <g id="patch_61">
    <path d="M 102.41808 288.430125 
L 108.91117 288.430125 
L 108.91117 147.630125 
L 102.41808 147.630125 
z
" clip-path="url(#pd9abcd3117)" style="fill: #1f77b4"/>
   </g>
   <g id="patch_62">
    <path d="M 108.91117 288.430125 
L 115.404261 288.430125 
L 115.404261 232.110125 
L 108.91117 232.110125 
z
" clip-path="url(#pd9abcd3117)" style="fill: #1f77b4"/>
   </g>
   <g id="patch_63">
    <path d="M 115.404261 288.430125 
L 121.897352 288.430125 
L 121.897352 119.470125 
L 115.404261 119.470125 
z
" clip-path="url(#pd9abcd3117)" style="fill: #1f77b4"/>
   </g>
   <g id="patch_64">
    <path d="M 121.897352 288.430125 
L 128.390443 288.430125 
L 128.390443 34.990125 
L 121.897352 34.990125 
z
" clip-path="url(#pd9abcd3117)" style="fill: #1f77b4"/>
   </g>
   <g id="patch_65">
    <path d="M 128.390443 288.430125 
L 134.883534 288.430125 
L 134.883534 175.790125 
L 128.390443 175.790125 
z
" clip-path="url(#pd9abcd3117)" style="fill: #1f77b4"/>
   </g>
   <g id="patch_66">
    <path d="M 134.883534 288.430125 
L 141.376625 288.430125 
L 141.376625 203.950125 
L 134.883534 203.950125 
z
" clip-path="url(#pd9abcd3117)" style="fill: #1f77b4"/>
   </g>
   <g id="patch_67">
    <path d="M 141.376625 288.430125 
L 147.869716 288.430125 
L 147.869716 203.950125 
L 141.376625 203.950125 
z
" clip-path="url(#pd9abcd3117)" style="fill: #1f77b4"/>
   </g>
   <g id="patch_68">
    <path d="M 147.869716 288.430125 
L 154.362807 288.430125 
L 154.362807 203.950125 
L 147.869716 203.950125 
z
" clip-path="url(#pd9abcd3117)" style="fill: #1f77b4"/>
   </g>
   <g id="patch_69">
    <path d="M 154.362807 288.430125 
L 160.855898 288.430125 
L 160.855898 147.630125 
L 154.362807 147.630125 
z
" clip-path="url(#pd9abcd3117)" style="fill: #1f77b4"/>
   </g>
   <g id="patch_70">
    <path d="M 160.855898 288.430125 
L 167.348989 288.430125 
L 167.348989 232.110125 
L 160.855898 232.110125 
z
" clip-path="url(#pd9abcd3117)" style="fill: #1f77b4"/>
   </g>
   <g id="patch_71">
    <path d="M 167.348989 288.430125 
L 173.84208 288.430125 
L 173.84208 260.270125 
L 167.348989 260.270125 
z
" clip-path="url(#pd9abcd3117)" style="fill: #1f77b4"/>
   </g>
   <g id="patch_72">
    <path d="M 173.84208 288.430125 
L 180.33517 288.430125 
L 180.33517 175.790125 
L 173.84208 175.790125 
z
" clip-path="url(#pd9abcd3117)" style="fill: #1f77b4"/>
   </g>
   <g id="patch_73">
    <path d="M 180.33517 288.430125 
L 186.828261 288.430125 
L 186.828261 203.950125 
L 180.33517 203.950125 
z
" clip-path="url(#pd9abcd3117)" style="fill: #1f77b4"/>
   </g>
   <g id="patch_74">
    <path d="M 186.828261 288.430125 
L 193.321352 288.430125 
L 193.321352 232.110125 
L 186.828261 232.110125 
z
" clip-path="url(#pd9abcd3117)" style="fill: #1f77b4"/>
   </g>
   <g id="patch_75">
    <path d="M 193.321352 288.430125 
L 199.814443 288.430125 
L 199.814443 260.270125 
L 193.321352 260.270125 
z
" clip-path="url(#pd9abcd3117)" style="fill: #1f77b4"/>
   </g>
   <g id="patch_76">
    <path d="M 199.814443 288.430125 
L 206.307534 288.430125 
L 206.307534 232.110125 
L 199.814443 232.110125 
z
" clip-path="url(#pd9abcd3117)" style="fill: #1f77b4"/>
   </g>
   <g id="patch_77">
    <path d="M 206.307534 288.430125 
L 212.800625 288.430125 
L 212.800625 232.110125 
L 206.307534 232.110125 
z
" clip-path="url(#pd9abcd3117)" style="fill: #1f77b4"/>
   </g>
   <g id="patch_78">
    <path d="M 212.800625 288.430125 
L 219.293716 288.430125 
L 219.293716 147.630125 
L 212.800625 147.630125 
z
" clip-path="url(#pd9abcd3117)" style="fill: #1f77b4"/>
   </g>
   <g id="patch_79">
    <path d="M 219.293716 288.430125 
L 225.786807 288.430125 
L 225.786807 260.270125 
L 219.293716 260.270125 
z
" clip-path="url(#pd9abcd3117)" style="fill: #1f77b4"/>
   </g>
   <g id="patch_80">
    <path d="M 225.786807 288.430125 
L 232.279898 288.430125 
L 232.279898 288.430125 
L 225.786807 288.430125 
z
" clip-path="url(#pd9abcd3117)" style="fill: #1f77b4"/>
   </g>
   <g id="patch_81">
    <path d="M 232.279898 288.430125 
L 238.772989 288.430125 
L 238.772989 232.110125 
L 232.279898 232.110125 
z
" clip-path="url(#pd9abcd3117)" style="fill: #1f77b4"/>
   </g>
   <g id="patch_82">
    <path d="M 238.772989 288.430125 
L 245.26608 288.430125 
L 245.26608 260.270125 
L 238.772989 260.270125 
z
" clip-path="url(#pd9abcd3117)" style="fill: #1f77b4"/>
   </g>
   <g id="patch_83">
    <path d="M 245.26608 288.430125 
L 251.75917 288.430125 
L 251.75917 260.270125 
L 245.26608 260.270125 
z
" clip-path="url(#pd9abcd3117)" style="fill: #1f77b4"/>
   </g>
   <g id="patch_84">
    <path d="M 251.75917 288.430125 
L 258.252261 288.430125 
L 258.252261 288.430125 
L 251.75917 288.430125 
z
" clip-path="url(#pd9abcd3117)" style="fill: #1f77b4"/>
   </g>
   <g id="patch_85">
    <path d="M 258.252261 288.430125 
L 264.745352 288.430125 
L 264.745352 260.270125 
L 258.252261 260.270125 
z
" clip-path="url(#pd9abcd3117)" style="fill: #1f77b4"/>
   </g>
   <g id="patch_86">
    <path d="M 264.745352 288.430125 
L 271.238443 288.430125 
L 271.238443 232.110125 
L 264.745352 232.110125 
z
" clip-path="url(#pd9abcd3117)" style="fill: #1f77b4"/>
   </g>
   <g id="patch_87">
    <path d="M 271.238443 288.430125 
L 277.731534 288.430125 
L 277.731534 288.430125 
L 271.238443 288.430125 
z
" clip-path="url(#pd9abcd3117)" style="fill: #1f77b4"/>
   </g>
   <g id="patch_88">
    <path d="M 277.731534 288.430125 
L 284.224625 288.430125 
L 284.224625 260.270125 
L 277.731534 260.270125 
z
" clip-path="url(#pd9abcd3117)" style="fill: #1f77b4"/>
   </g>
   <g id="patch_89">
    <path d="M 284.224625 288.430125 
L 290.717716 288.430125 
L 290.717716 232.110125 
L 284.224625 232.110125 
z
" clip-path="url(#pd9abcd3117)" style="fill: #1f77b4"/>
   </g>
   <g id="patch_90">
    <path d="M 290.717716 288.430125 
L 297.210807 288.430125 
L 297.210807 260.270125 
L 290.717716 260.270125 
z
" clip-path="url(#pd9abcd3117)" style="fill: #1f77b4"/>
   </g>
   <g id="patch_91">
    <path d="M 297.210807 288.430125 
L 303.703898 288.430125 
L 303.703898 260.270125 
L 297.210807 260.270125 
z
" clip-path="url(#pd9abcd3117)" style="fill: #1f77b4"/>
   </g>
   <g id="patch_92">
    <path d="M 303.703898 288.430125 
L 310.196989 288.430125 
L 310.196989 260.270125 
L 303.703898 260.270125 
z
" clip-path="url(#pd9abcd3117)" style="fill: #1f77b4"/>
   </g>
   <g id="patch_93">
    <path d="M 310.196989 288.430125 
L 316.69008 288.430125 
L 316.69008 288.430125 
L 310.196989 288.430125 
z
" clip-path="url(#pd9abcd3117)" style="fill: #1f77b4"/>
   </g>
   <g id="patch_94">
    <path d="M 316.69008 288.430125 
L 323.18317 288.430125 
L 323.18317 288.430125 
L 316.69008 288.430125 
z
" clip-path="url(#pd9abcd3117)" style="fill: #1f77b4"/>
   </g>
   <g id="patch_95">
    <path d="M 323.18317 288.430125 
L 329.676261 288.430125 
L 329.676261 260.270125 
L 323.18317 260.270125 
z
" clip-path="url(#pd9abcd3117)" style="fill: #1f77b4"/>
   </g>
   <g id="patch_96">
    <path d="M 329.676261 288.430125 
L 336.169352 288.430125 
L 336.169352 288.430125 
L 329.676261 288.430125 
z
" clip-path="url(#pd9abcd3117)" style="fill: #1f77b4"/>
   </g>
   <g id="patch_97">
    <path d="M 336.169352 288.430125 
L 342.662443 288.430125 
L 342.662443 288.430125 
L 336.169352 288.430125 
z
" clip-path="url(#pd9abcd3117)" style="fill: #1f77b4"/>
   </g>
   <g id="patch_98">
    <path d="M 342.662443 288.430125 
L 349.155534 288.430125 
L 349.155534 288.430125 
L 342.662443 288.430125 
z
" clip-path="url(#pd9abcd3117)" style="fill: #1f77b4"/>
   </g>
   <g id="patch_99">
    <path d="M 349.155534 288.430125 
L 355.648625 288.430125 
L 355.648625 288.430125 
L 349.155534 288.430125 
z
" clip-path="url(#pd9abcd3117)" style="fill: #1f77b4"/>
   </g>
   <g id="patch_100">
    <path d="M 355.648625 288.430125 
L 362.141716 288.430125 
L 362.141716 288.430125 
L 355.648625 288.430125 
z
" clip-path="url(#pd9abcd3117)" style="fill: #1f77b4"/>
   </g>
   <g id="patch_101">
    <path d="M 362.141716 288.430125 
L 368.634807 288.430125 
L 368.634807 288.430125 
L 362.141716 288.430125 
z
" clip-path="url(#pd9abcd3117)" style="fill: #1f77b4"/>
   </g>
   <g id="patch_102">
    <path d="M 368.634807 288.430125 
L 375.127898 288.430125 
L 375.127898 260.270125 
L 368.634807 260.270125 
z
" clip-path="url(#pd9abcd3117)" style="fill: #1f77b4"/>
   </g>
   <g id="matplotlib.axis_1">
    <g id="xtick_1">
     <g id="line2d_1">
      <defs>
       <path id="mff64a2d363" d="M 0 0 
L 0 3.5 
" style="stroke: #000000; stroke-width: 0.8"/>
      </defs>
      <g>
       <use xlink:href="#mff64a2d363" x="50.376671" y="288.430125" style="stroke: #000000; stroke-width: 0.8"/>
      </g>
     </g>
     <g id="text_1">
      <!-- 0 -->
      <g transform="translate(47.195421 303.028562) scale(0.1 -0.1)">
       <defs>
        <path id="DejaVuSans-30" d="M 2034 4250 
Q 1547 4250 1301 3770 
Q 1056 3291 1056 2328 
Q 1056 1369 1301 889 
Q 1547 409 2034 409 
Q 2525 409 2770 889 
Q 3016 1369 3016 2328 
Q 3016 3291 2770 3770 
Q 2525 4250 2034 4250 
z
M 2034 4750 
Q 2819 4750 3233 4129 
Q 3647 3509 3647 2328 
Q 3647 1150 3233 529 
Q 2819 -91 2034 -91 
Q 1250 -91 836 529 
Q 422 1150 422 2328 
Q 422 3509 836 4129 
Q 1250 4750 2034 4750 
z
" transform="scale(0.015625)"/>
       </defs>
       <use xlink:href="#DejaVuSans-30"/>
      </g>
     </g>
    </g>
    <g id="xtick_2">
     <g id="line2d_2">
      <g>
       <use xlink:href="#mff64a2d363" x="98.717134" y="288.430125" style="stroke: #000000; stroke-width: 0.8"/>
      </g>
     </g>
     <g id="text_2">
      <!-- 1000 -->
      <g transform="translate(85.992134 303.028562) scale(0.1 -0.1)">
       <defs>
        <path id="DejaVuSans-31" d="M 794 531 
L 1825 531 
L 1825 4091 
L 703 3866 
L 703 4441 
L 1819 4666 
L 2450 4666 
L 2450 531 
L 3481 531 
L 3481 0 
L 794 0 
L 794 531 
z
" transform="scale(0.015625)"/>
       </defs>
       <use xlink:href="#DejaVuSans-31"/>
       <use xlink:href="#DejaVuSans-30" x="63.623047"/>
       <use xlink:href="#DejaVuSans-30" x="127.246094"/>
       <use xlink:href="#DejaVuSans-30" x="190.869141"/>
      </g>
     </g>
    </g>
    <g id="xtick_3">
     <g id="line2d_3">
      <g>
       <use xlink:href="#mff64a2d363" x="147.057596" y="288.430125" style="stroke: #000000; stroke-width: 0.8"/>
      </g>
     </g>
     <g id="text_3">
      <!-- 2000 -->
      <g transform="translate(134.332596 303.028562) scale(0.1 -0.1)">
       <defs>
        <path id="DejaVuSans-32" d="M 1228 531 
L 3431 531 
L 3431 0 
L 469 0 
L 469 531 
Q 828 903 1448 1529 
Q 2069 2156 2228 2338 
Q 2531 2678 2651 2914 
Q 2772 3150 2772 3378 
Q 2772 3750 2511 3984 
Q 2250 4219 1831 4219 
Q 1534 4219 1204 4116 
Q 875 4013 500 3803 
L 500 4441 
Q 881 4594 1212 4672 
Q 1544 4750 1819 4750 
Q 2544 4750 2975 4387 
Q 3406 4025 3406 3419 
Q 3406 3131 3298 2873 
Q 3191 2616 2906 2266 
Q 2828 2175 2409 1742 
Q 1991 1309 1228 531 
z
" transform="scale(0.015625)"/>
       </defs>
       <use xlink:href="#DejaVuSans-32"/>
       <use xlink:href="#DejaVuSans-30" x="63.623047"/>
       <use xlink:href="#DejaVuSans-30" x="127.246094"/>
       <use xlink:href="#DejaVuSans-30" x="190.869141"/>
      </g>
     </g>
    </g>
    <g id="xtick_4">
     <g id="line2d_4">
      <g>
       <use xlink:href="#mff64a2d363" x="195.398059" y="288.430125" style="stroke: #000000; stroke-width: 0.8"/>
      </g>
     </g>
     <g id="text_4">
      <!-- 3000 -->
      <g transform="translate(182.673059 303.028562) scale(0.1 -0.1)">
       <defs>
        <path id="DejaVuSans-33" d="M 2597 2516 
Q 3050 2419 3304 2112 
Q 3559 1806 3559 1356 
Q 3559 666 3084 287 
Q 2609 -91 1734 -91 
Q 1441 -91 1130 -33 
Q 819 25 488 141 
L 488 750 
Q 750 597 1062 519 
Q 1375 441 1716 441 
Q 2309 441 2620 675 
Q 2931 909 2931 1356 
Q 2931 1769 2642 2001 
Q 2353 2234 1838 2234 
L 1294 2234 
L 1294 2753 
L 1863 2753 
Q 2328 2753 2575 2939 
Q 2822 3125 2822 3475 
Q 2822 3834 2567 4026 
Q 2313 4219 1838 4219 
Q 1578 4219 1281 4162 
Q 984 4106 628 3988 
L 628 4550 
Q 988 4650 1302 4700 
Q 1616 4750 1894 4750 
Q 2613 4750 3031 4423 
Q 3450 4097 3450 3541 
Q 3450 3153 3228 2886 
Q 3006 2619 2597 2516 
z
" transform="scale(0.015625)"/>
       </defs>
       <use xlink:href="#DejaVuSans-33"/>
       <use xlink:href="#DejaVuSans-30" x="63.623047"/>
       <use xlink:href="#DejaVuSans-30" x="127.246094"/>
       <use xlink:href="#DejaVuSans-30" x="190.869141"/>
      </g>
     </g>
    </g>
    <g id="xtick_5">
     <g id="line2d_5">
      <g>
       <use xlink:href="#mff64a2d363" x="243.738521" y="288.430125" style="stroke: #000000; stroke-width: 0.8"/>
      </g>
     </g>
     <g id="text_5">
      <!-- 4000 -->
      <g transform="translate(231.013521 303.028562) scale(0.1 -0.1)">
       <defs>
        <path id="DejaVuSans-34" d="M 2419 4116 
L 825 1625 
L 2419 1625 
L 2419 4116 
z
M 2253 4666 
L 3047 4666 
L 3047 1625 
L 3713 1625 
L 3713 1100 
L 3047 1100 
L 3047 0 
L 2419 0 
L 2419 1100 
L 313 1100 
L 313 1709 
L 2253 4666 
z
" transform="scale(0.015625)"/>
       </defs>
       <use xlink:href="#DejaVuSans-34"/>
       <use xlink:href="#DejaVuSans-30" x="63.623047"/>
       <use xlink:href="#DejaVuSans-30" x="127.246094"/>
       <use xlink:href="#DejaVuSans-30" x="190.869141"/>
      </g>
     </g>
    </g>
    <g id="xtick_6">
     <g id="line2d_6">
      <g>
       <use xlink:href="#mff64a2d363" x="292.078983" y="288.430125" style="stroke: #000000; stroke-width: 0.8"/>
      </g>
     </g>
     <g id="text_6">
      <!-- 5000 -->
      <g transform="translate(279.353983 303.028562) scale(0.1 -0.1)">
       <defs>
        <path id="DejaVuSans-35" d="M 691 4666 
L 3169 4666 
L 3169 4134 
L 1269 4134 
L 1269 2991 
Q 1406 3038 1543 3061 
Q 1681 3084 1819 3084 
Q 2600 3084 3056 2656 
Q 3513 2228 3513 1497 
Q 3513 744 3044 326 
Q 2575 -91 1722 -91 
Q 1428 -91 1123 -41 
Q 819 9 494 109 
L 494 744 
Q 775 591 1075 516 
Q 1375 441 1709 441 
Q 2250 441 2565 725 
Q 2881 1009 2881 1497 
Q 2881 1984 2565 2268 
Q 2250 2553 1709 2553 
Q 1456 2553 1204 2497 
Q 953 2441 691 2322 
L 691 4666 
z
" transform="scale(0.015625)"/>
       </defs>
       <use xlink:href="#DejaVuSans-35"/>
       <use xlink:href="#DejaVuSans-30" x="63.623047"/>
       <use xlink:href="#DejaVuSans-30" x="127.246094"/>
       <use xlink:href="#DejaVuSans-30" x="190.869141"/>
      </g>
     </g>
    </g>
    <g id="xtick_7">
     <g id="line2d_7">
      <g>
       <use xlink:href="#mff64a2d363" x="340.419446" y="288.430125" style="stroke: #000000; stroke-width: 0.8"/>
      </g>
     </g>
     <g id="text_7">
      <!-- 6000 -->
      <g transform="translate(327.694446 303.028562) scale(0.1 -0.1)">
       <defs>
        <path id="DejaVuSans-36" d="M 2113 2584 
Q 1688 2584 1439 2293 
Q 1191 2003 1191 1497 
Q 1191 994 1439 701 
Q 1688 409 2113 409 
Q 2538 409 2786 701 
Q 3034 994 3034 1497 
Q 3034 2003 2786 2293 
Q 2538 2584 2113 2584 
z
M 3366 4563 
L 3366 3988 
Q 3128 4100 2886 4159 
Q 2644 4219 2406 4219 
Q 1781 4219 1451 3797 
Q 1122 3375 1075 2522 
Q 1259 2794 1537 2939 
Q 1816 3084 2150 3084 
Q 2853 3084 3261 2657 
Q 3669 2231 3669 1497 
Q 3669 778 3244 343 
Q 2819 -91 2113 -91 
Q 1303 -91 875 529 
Q 447 1150 447 2328 
Q 447 3434 972 4092 
Q 1497 4750 2381 4750 
Q 2619 4750 2861 4703 
Q 3103 4656 3366 4563 
z
" transform="scale(0.015625)"/>
       </defs>
       <use xlink:href="#DejaVuSans-36"/>
       <use xlink:href="#DejaVuSans-30" x="63.623047"/>
       <use xlink:href="#DejaVuSans-30" x="127.246094"/>
       <use xlink:href="#DejaVuSans-30" x="190.869141"/>
      </g>
     </g>
    </g>
    <g id="xtick_8">
     <g id="line2d_8">
      <g>
       <use xlink:href="#mff64a2d363" x="388.759908" y="288.430125" style="stroke: #000000; stroke-width: 0.8"/>
      </g>
     </g>
     <g id="text_8">
      <!-- 7000 -->
      <g transform="translate(376.034908 303.028562) scale(0.1 -0.1)">
       <defs>
        <path id="DejaVuSans-37" d="M 525 4666 
L 3525 4666 
L 3525 4397 
L 1831 0 
L 1172 0 
L 2766 4134 
L 525 4134 
L 525 4666 
z
" transform="scale(0.015625)"/>
       </defs>
       <use xlink:href="#DejaVuSans-37"/>
       <use xlink:href="#DejaVuSans-30" x="63.623047"/>
       <use xlink:href="#DejaVuSans-30" x="127.246094"/>
       <use xlink:href="#DejaVuSans-30" x="190.869141"/>
      </g>
     </g>
    </g>
    <g id="text_9">
     <!-- Number of URLs found -->
     <g transform="translate(156.2725 316.706687) scale(0.1 -0.1)">
      <defs>
       <path id="DejaVuSans-4e" d="M 628 4666 
L 1478 4666 
L 3547 763 
L 3547 4666 
L 4159 4666 
L 4159 0 
L 3309 0 
L 1241 3903 
L 1241 0 
L 628 0 
L 628 4666 
z
" transform="scale(0.015625)"/>
       <path id="DejaVuSans-75" d="M 544 1381 
L 544 3500 
L 1119 3500 
L 1119 1403 
Q 1119 906 1312 657 
Q 1506 409 1894 409 
Q 2359 409 2629 706 
Q 2900 1003 2900 1516 
L 2900 3500 
L 3475 3500 
L 3475 0 
L 2900 0 
L 2900 538 
Q 2691 219 2414 64 
Q 2138 -91 1772 -91 
Q 1169 -91 856 284 
Q 544 659 544 1381 
z
M 1991 3584 
L 1991 3584 
z
" transform="scale(0.015625)"/>
       <path id="DejaVuSans-6d" d="M 3328 2828 
Q 3544 3216 3844 3400 
Q 4144 3584 4550 3584 
Q 5097 3584 5394 3201 
Q 5691 2819 5691 2113 
L 5691 0 
L 5113 0 
L 5113 2094 
Q 5113 2597 4934 2840 
Q 4756 3084 4391 3084 
Q 3944 3084 3684 2787 
Q 3425 2491 3425 1978 
L 3425 0 
L 2847 0 
L 2847 2094 
Q 2847 2600 2669 2842 
Q 2491 3084 2119 3084 
Q 1678 3084 1418 2786 
Q 1159 2488 1159 1978 
L 1159 0 
L 581 0 
L 581 3500 
L 1159 3500 
L 1159 2956 
Q 1356 3278 1631 3431 
Q 1906 3584 2284 3584 
Q 2666 3584 2933 3390 
Q 3200 3197 3328 2828 
z
" transform="scale(0.015625)"/>
       <path id="DejaVuSans-62" d="M 3116 1747 
Q 3116 2381 2855 2742 
Q 2594 3103 2138 3103 
Q 1681 3103 1420 2742 
Q 1159 2381 1159 1747 
Q 1159 1113 1420 752 
Q 1681 391 2138 391 
Q 2594 391 2855 752 
Q 3116 1113 3116 1747 
z
M 1159 2969 
Q 1341 3281 1617 3432 
Q 1894 3584 2278 3584 
Q 2916 3584 3314 3078 
Q 3713 2572 3713 1747 
Q 3713 922 3314 415 
Q 2916 -91 2278 -91 
Q 1894 -91 1617 61 
Q 1341 213 1159 525 
L 1159 0 
L 581 0 
L 581 4863 
L 1159 4863 
L 1159 2969 
z
" transform="scale(0.015625)"/>
       <path id="DejaVuSans-65" d="M 3597 1894 
L 3597 1613 
L 953 1613 
Q 991 1019 1311 708 
Q 1631 397 2203 397 
Q 2534 397 2845 478 
Q 3156 559 3463 722 
L 3463 178 
Q 3153 47 2828 -22 
Q 2503 -91 2169 -91 
Q 1331 -91 842 396 
Q 353 884 353 1716 
Q 353 2575 817 3079 
Q 1281 3584 2069 3584 
Q 2775 3584 3186 3129 
Q 3597 2675 3597 1894 
z
M 3022 2063 
Q 3016 2534 2758 2815 
Q 2500 3097 2075 3097 
Q 1594 3097 1305 2825 
Q 1016 2553 972 2059 
L 3022 2063 
z
" transform="scale(0.015625)"/>
       <path id="DejaVuSans-72" d="M 2631 2963 
Q 2534 3019 2420 3045 
Q 2306 3072 2169 3072 
Q 1681 3072 1420 2755 
Q 1159 2438 1159 1844 
L 1159 0 
L 581 0 
L 581 3500 
L 1159 3500 
L 1159 2956 
Q 1341 3275 1631 3429 
Q 1922 3584 2338 3584 
Q 2397 3584 2469 3576 
Q 2541 3569 2628 3553 
L 2631 2963 
z
" transform="scale(0.015625)"/>
       <path id="DejaVuSans-20" transform="scale(0.015625)"/>
       <path id="DejaVuSans-6f" d="M 1959 3097 
Q 1497 3097 1228 2736 
Q 959 2375 959 1747 
Q 959 1119 1226 758 
Q 1494 397 1959 397 
Q 2419 397 2687 759 
Q 2956 1122 2956 1747 
Q 2956 2369 2687 2733 
Q 2419 3097 1959 3097 
z
M 1959 3584 
Q 2709 3584 3137 3096 
Q 3566 2609 3566 1747 
Q 3566 888 3137 398 
Q 2709 -91 1959 -91 
Q 1206 -91 779 398 
Q 353 888 353 1747 
Q 353 2609 779 3096 
Q 1206 3584 1959 3584 
z
" transform="scale(0.015625)"/>
       <path id="DejaVuSans-66" d="M 2375 4863 
L 2375 4384 
L 1825 4384 
Q 1516 4384 1395 4259 
Q 1275 4134 1275 3809 
L 1275 3500 
L 2222 3500 
L 2222 3053 
L 1275 3053 
L 1275 0 
L 697 0 
L 697 3053 
L 147 3053 
L 147 3500 
L 697 3500 
L 697 3744 
Q 697 4328 969 4595 
Q 1241 4863 1831 4863 
L 2375 4863 
z
" transform="scale(0.015625)"/>
       <path id="DejaVuSans-55" d="M 556 4666 
L 1191 4666 
L 1191 1831 
Q 1191 1081 1462 751 
Q 1734 422 2344 422 
Q 2950 422 3222 751 
Q 3494 1081 3494 1831 
L 3494 4666 
L 4128 4666 
L 4128 1753 
Q 4128 841 3676 375 
Q 3225 -91 2344 -91 
Q 1459 -91 1007 375 
Q 556 841 556 1753 
L 556 4666 
z
" transform="scale(0.015625)"/>
       <path id="DejaVuSans-52" d="M 2841 2188 
Q 3044 2119 3236 1894 
Q 3428 1669 3622 1275 
L 4263 0 
L 3584 0 
L 2988 1197 
Q 2756 1666 2539 1819 
Q 2322 1972 1947 1972 
L 1259 1972 
L 1259 0 
L 628 0 
L 628 4666 
L 2053 4666 
Q 2853 4666 3247 4331 
Q 3641 3997 3641 3322 
Q 3641 2881 3436 2590 
Q 3231 2300 2841 2188 
z
M 1259 4147 
L 1259 2491 
L 2053 2491 
Q 2509 2491 2742 2702 
Q 2975 2913 2975 3322 
Q 2975 3731 2742 3939 
Q 2509 4147 2053 4147 
L 1259 4147 
z
" transform="scale(0.015625)"/>
       <path id="DejaVuSans-4c" d="M 628 4666 
L 1259 4666 
L 1259 531 
L 3531 531 
L 3531 0 
L 628 0 
L 628 4666 
z
" transform="scale(0.015625)"/>
       <path id="DejaVuSans-73" d="M 2834 3397 
L 2834 2853 
Q 2591 2978 2328 3040 
Q 2066 3103 1784 3103 
Q 1356 3103 1142 2972 
Q 928 2841 928 2578 
Q 928 2378 1081 2264 
Q 1234 2150 1697 2047 
L 1894 2003 
Q 2506 1872 2764 1633 
Q 3022 1394 3022 966 
Q 3022 478 2636 193 
Q 2250 -91 1575 -91 
Q 1294 -91 989 -36 
Q 684 19 347 128 
L 347 722 
Q 666 556 975 473 
Q 1284 391 1588 391 
Q 1994 391 2212 530 
Q 2431 669 2431 922 
Q 2431 1156 2273 1281 
Q 2116 1406 1581 1522 
L 1381 1569 
Q 847 1681 609 1914 
Q 372 2147 372 2553 
Q 372 3047 722 3315 
Q 1072 3584 1716 3584 
Q 2034 3584 2315 3537 
Q 2597 3491 2834 3397 
z
" transform="scale(0.015625)"/>
       <path id="DejaVuSans-6e" d="M 3513 2113 
L 3513 0 
L 2938 0 
L 2938 2094 
Q 2938 2591 2744 2837 
Q 2550 3084 2163 3084 
Q 1697 3084 1428 2787 
Q 1159 2491 1159 1978 
L 1159 0 
L 581 0 
L 581 3500 
L 1159 3500 
L 1159 2956 
Q 1366 3272 1645 3428 
Q 1925 3584 2291 3584 
Q 2894 3584 3203 3211 
Q 3513 2838 3513 2113 
z
" transform="scale(0.015625)"/>
       <path id="DejaVuSans-64" d="M 2906 2969 
L 2906 4863 
L 3481 4863 
L 3481 0 
L 2906 0 
L 2906 525 
Q 2725 213 2448 61 
Q 2172 -91 1784 -91 
Q 1150 -91 751 415 
Q 353 922 353 1747 
Q 353 2572 751 3078 
Q 1150 3584 1784 3584 
Q 2172 3584 2448 3432 
Q 2725 3281 2906 2969 
z
M 947 1747 
Q 947 1113 1208 752 
Q 1469 391 1925 391 
Q 2381 391 2643 752 
Q 2906 1113 2906 1747 
Q 2906 2381 2643 2742 
Q 2381 3103 1925 3103 
Q 1469 3103 1208 2742 
Q 947 2381 947 1747 
z
" transform="scale(0.015625)"/>
      </defs>
      <use xlink:href="#DejaVuSans-4e"/>
      <use xlink:href="#DejaVuSans-75" x="74.804688"/>
      <use xlink:href="#DejaVuSans-6d" x="138.183594"/>
      <use xlink:href="#DejaVuSans-62" x="235.595703"/>
      <use xlink:href="#DejaVuSans-65" x="299.072266"/>
      <use xlink:href="#DejaVuSans-72" x="360.595703"/>
      <use xlink:href="#DejaVuSans-20" x="401.708984"/>
      <use xlink:href="#DejaVuSans-6f" x="433.496094"/>
      <use xlink:href="#DejaVuSans-66" x="494.677734"/>
      <use xlink:href="#DejaVuSans-20" x="529.882812"/>
      <use xlink:href="#DejaVuSans-55" x="561.669922"/>
      <use xlink:href="#DejaVuSans-52" x="634.863281"/>
      <use xlink:href="#DejaVuSans-4c" x="704.345703"/>
      <use xlink:href="#DejaVuSans-73" x="760.058594"/>
      <use xlink:href="#DejaVuSans-20" x="812.158203"/>
      <use xlink:href="#DejaVuSans-66" x="843.945312"/>
      <use xlink:href="#DejaVuSans-6f" x="879.150391"/>
      <use xlink:href="#DejaVuSans-75" x="940.332031"/>
      <use xlink:href="#DejaVuSans-6e" x="1003.710938"/>
      <use xlink:href="#DejaVuSans-64" x="1067.089844"/>
     </g>
    </g>
   </g>
   <g id="matplotlib.axis_2">
    <g id="ytick_1">
     <g id="line2d_9">
      <defs>
       <path id="m58dad33366" d="M 0 0 
L -3.5 0 
" style="stroke: #000000; stroke-width: 0.8"/>
      </defs>
      <g>
       <use xlink:href="#m58dad33366" x="34.240625" y="288.430125" style="stroke: #000000; stroke-width: 0.8"/>
      </g>
     </g>
     <g id="text_10">
      <!-- 0 -->
      <g transform="translate(20.878125 292.229344) scale(0.1 -0.1)">
       <use xlink:href="#DejaVuSans-30"/>
      </g>
     </g>
    </g>
    <g id="ytick_2">
     <g id="line2d_10">
      <g>
       <use xlink:href="#m58dad33366" x="34.240625" y="232.110125" style="stroke: #000000; stroke-width: 0.8"/>
      </g>
     </g>
     <g id="text_11">
      <!-- 2 -->
      <g transform="translate(20.878125 235.909344) scale(0.1 -0.1)">
       <use xlink:href="#DejaVuSans-32"/>
      </g>
     </g>
    </g>
    <g id="ytick_3">
     <g id="line2d_11">
      <g>
       <use xlink:href="#m58dad33366" x="34.240625" y="175.790125" style="stroke: #000000; stroke-width: 0.8"/>
      </g>
     </g>
     <g id="text_12">
      <!-- 4 -->
      <g transform="translate(20.878125 179.589344) scale(0.1 -0.1)">
       <use xlink:href="#DejaVuSans-34"/>
      </g>
     </g>
    </g>
    <g id="ytick_4">
     <g id="line2d_12">
      <g>
       <use xlink:href="#m58dad33366" x="34.240625" y="119.470125" style="stroke: #000000; stroke-width: 0.8"/>
      </g>
     </g>
     <g id="text_13">
      <!-- 6 -->
      <g transform="translate(20.878125 123.269344) scale(0.1 -0.1)">
       <use xlink:href="#DejaVuSans-36"/>
      </g>
     </g>
    </g>
    <g id="ytick_5">
     <g id="line2d_13">
      <g>
       <use xlink:href="#m58dad33366" x="34.240625" y="63.150125" style="stroke: #000000; stroke-width: 0.8"/>
      </g>
     </g>
     <g id="text_14">
      <!-- 8 -->
      <g transform="translate(20.878125 66.949344) scale(0.1 -0.1)">
       <defs>
        <path id="DejaVuSans-38" d="M 2034 2216 
Q 1584 2216 1326 1975 
Q 1069 1734 1069 1313 
Q 1069 891 1326 650 
Q 1584 409 2034 409 
Q 2484 409 2743 651 
Q 3003 894 3003 1313 
Q 3003 1734 2745 1975 
Q 2488 2216 2034 2216 
z
M 1403 2484 
Q 997 2584 770 2862 
Q 544 3141 544 3541 
Q 544 4100 942 4425 
Q 1341 4750 2034 4750 
Q 2731 4750 3128 4425 
Q 3525 4100 3525 3541 
Q 3525 3141 3298 2862 
Q 3072 2584 2669 2484 
Q 3125 2378 3379 2068 
Q 3634 1759 3634 1313 
Q 3634 634 3220 271 
Q 2806 -91 2034 -91 
Q 1263 -91 848 271 
Q 434 634 434 1313 
Q 434 1759 690 2068 
Q 947 2378 1403 2484 
z
M 1172 3481 
Q 1172 3119 1398 2916 
Q 1625 2713 2034 2713 
Q 2441 2713 2670 2916 
Q 2900 3119 2900 3481 
Q 2900 3844 2670 4047 
Q 2441 4250 2034 4250 
Q 1625 4250 1398 4047 
Q 1172 3844 1172 3481 
z
" transform="scale(0.015625)"/>
       </defs>
       <use xlink:href="#DejaVuSans-38"/>
      </g>
     </g>
    </g>
    <g id="text_15">
     <!-- Frequency -->
     <g transform="translate(14.798438 181.203812) rotate(-90) scale(0.1 -0.1)">
      <defs>
       <path id="DejaVuSans-46" d="M 628 4666 
L 3309 4666 
L 3309 4134 
L 1259 4134 
L 1259 2759 
L 3109 2759 
L 3109 2228 
L 1259 2228 
L 1259 0 
L 628 0 
L 628 4666 
z
" transform="scale(0.015625)"/>
       <path id="DejaVuSans-71" d="M 947 1747 
Q 947 1113 1208 752 
Q 1469 391 1925 391 
Q 2381 391 2643 752 
Q 2906 1113 2906 1747 
Q 2906 2381 2643 2742 
Q 2381 3103 1925 3103 
Q 1469 3103 1208 2742 
Q 947 2381 947 1747 
z
M 2906 525 
Q 2725 213 2448 61 
Q 2172 -91 1784 -91 
Q 1150 -91 751 415 
Q 353 922 353 1747 
Q 353 2572 751 3078 
Q 1150 3584 1784 3584 
Q 2172 3584 2448 3432 
Q 2725 3281 2906 2969 
L 2906 3500 
L 3481 3500 
L 3481 -1331 
L 2906 -1331 
L 2906 525 
z
" transform="scale(0.015625)"/>
       <path id="DejaVuSans-63" d="M 3122 3366 
L 3122 2828 
Q 2878 2963 2633 3030 
Q 2388 3097 2138 3097 
Q 1578 3097 1268 2742 
Q 959 2388 959 1747 
Q 959 1106 1268 751 
Q 1578 397 2138 397 
Q 2388 397 2633 464 
Q 2878 531 3122 666 
L 3122 134 
Q 2881 22 2623 -34 
Q 2366 -91 2075 -91 
Q 1284 -91 818 406 
Q 353 903 353 1747 
Q 353 2603 823 3093 
Q 1294 3584 2113 3584 
Q 2378 3584 2631 3529 
Q 2884 3475 3122 3366 
z
" transform="scale(0.015625)"/>
       <path id="DejaVuSans-79" d="M 2059 -325 
Q 1816 -950 1584 -1140 
Q 1353 -1331 966 -1331 
L 506 -1331 
L 506 -850 
L 844 -850 
Q 1081 -850 1212 -737 
Q 1344 -625 1503 -206 
L 1606 56 
L 191 3500 
L 800 3500 
L 1894 763 
L 2988 3500 
L 3597 3500 
L 2059 -325 
z
" transform="scale(0.015625)"/>
      </defs>
      <use xlink:href="#DejaVuSans-46"/>
      <use xlink:href="#DejaVuSans-72" x="50.269531"/>
      <use xlink:href="#DejaVuSans-65" x="89.132812"/>
      <use xlink:href="#DejaVuSans-71" x="150.65625"/>
      <use xlink:href="#DejaVuSans-75" x="214.132812"/>
      <use xlink:href="#DejaVuSans-65" x="277.511719"/>
      <use xlink:href="#DejaVuSans-6e" x="339.035156"/>
      <use xlink:href="#DejaVuSans-63" x="402.414062"/>
      <use xlink:href="#DejaVuSans-79" x="457.394531"/>
     </g>
    </g>
   </g>
   <g id="patch_103">
    <path d="M 34.240625 288.430125 
L 34.240625 22.318125 
" style="fill: none; stroke: #000000; stroke-width: 0.8; stroke-linejoin: miter; stroke-linecap: square"/>
   </g>
   <g id="patch_104">
    <path d="M 391.360625 288.430125 
L 391.360625 22.318125 
" style="fill: none; stroke: #000000; stroke-width: 0.8; stroke-linejoin: miter; stroke-linecap: square"/>
   </g>
   <g id="patch_105">
    <path d="M 34.240625 288.430125 
L 391.360625 288.430125 
" style="fill: none; stroke: #000000; stroke-width: 0.8; stroke-linejoin: miter; stroke-linecap: square"/>
   </g>
   <g id="patch_106">
    <path d="M 34.240625 22.318125 
L 391.360625 22.318125 
" style="fill: none; stroke: #000000; stroke-width: 0.8; stroke-linejoin: miter; stroke-linecap: square"/>
   </g>
   <g id="text_16">
    <!-- 3 -->
    <g transform="translate(47.292102 201.870437) scale(0.1 -0.1)">
     <use xlink:href="#DejaVuSans-33"/>
    </g>
   </g>
   <g id="text_17">
    <!-- 1 -->
    <g transform="translate(53.785193 258.190437) scale(0.1 -0.1)">
     <use xlink:href="#DejaVuSans-31"/>
    </g>
   </g>
   <g id="text_18">
    <!-- 2 -->
    <g transform="translate(60.278284 230.030437) scale(0.1 -0.1)">
     <use xlink:href="#DejaVuSans-32"/>
    </g>
   </g>
   <g id="text_19">
    <!-- 1 -->
    <g transform="translate(66.771375 258.190437) scale(0.1 -0.1)">
     <use xlink:href="#DejaVuSans-31"/>
    </g>
   </g>
   <g id="text_20">
    <!-- 2 -->
    <g transform="translate(73.264466 230.030437) scale(0.1 -0.1)">
     <use xlink:href="#DejaVuSans-32"/>
    </g>
   </g>
   <g id="text_21">
    <!-- 3 -->
    <g transform="translate(79.757557 201.870437) scale(0.1 -0.1)">
     <use xlink:href="#DejaVuSans-33"/>
    </g>
   </g>
   <g id="text_22">
    <!-- 6 -->
    <g transform="translate(86.250648 117.390437) scale(0.1 -0.1)">
     <use xlink:href="#DejaVuSans-36"/>
    </g>
   </g>
   <g id="text_23">
    <!-- 4 -->
    <g transform="translate(92.743739 173.710437) scale(0.1 -0.1)">
     <use xlink:href="#DejaVuSans-34"/>
    </g>
   </g>
   <g id="text_24">
    <!-- 5 -->
    <g transform="translate(99.23683 145.550437) scale(0.1 -0.1)">
     <use xlink:href="#DejaVuSans-35"/>
    </g>
   </g>
   <g id="text_25">
    <!-- 2 -->
    <g transform="translate(105.72992 230.030437) scale(0.1 -0.1)">
     <use xlink:href="#DejaVuSans-32"/>
    </g>
   </g>
   <g id="text_26">
    <!-- 6 -->
    <g transform="translate(112.223011 117.390437) scale(0.1 -0.1)">
     <use xlink:href="#DejaVuSans-36"/>
    </g>
   </g>
   <g id="text_27">
    <!-- 9 -->
    <g transform="translate(118.716102 32.910437) scale(0.1 -0.1)">
     <defs>
      <path id="DejaVuSans-39" d="M 703 97 
L 703 672 
Q 941 559 1184 500 
Q 1428 441 1663 441 
Q 2288 441 2617 861 
Q 2947 1281 2994 2138 
Q 2813 1869 2534 1725 
Q 2256 1581 1919 1581 
Q 1219 1581 811 2004 
Q 403 2428 403 3163 
Q 403 3881 828 4315 
Q 1253 4750 1959 4750 
Q 2769 4750 3195 4129 
Q 3622 3509 3622 2328 
Q 3622 1225 3098 567 
Q 2575 -91 1691 -91 
Q 1453 -91 1209 -44 
Q 966 3 703 97 
z
M 1959 2075 
Q 2384 2075 2632 2365 
Q 2881 2656 2881 3163 
Q 2881 3666 2632 3958 
Q 2384 4250 1959 4250 
Q 1534 4250 1286 3958 
Q 1038 3666 1038 3163 
Q 1038 2656 1286 2365 
Q 1534 2075 1959 2075 
z
" transform="scale(0.015625)"/>
     </defs>
     <use xlink:href="#DejaVuSans-39"/>
    </g>
   </g>
   <g id="text_28">
    <!-- 4 -->
    <g transform="translate(125.209193 173.710437) scale(0.1 -0.1)">
     <use xlink:href="#DejaVuSans-34"/>
    </g>
   </g>
   <g id="text_29">
    <!-- 3 -->
    <g transform="translate(131.702284 201.870437) scale(0.1 -0.1)">
     <use xlink:href="#DejaVuSans-33"/>
    </g>
   </g>
   <g id="text_30">
    <!-- 3 -->
    <g transform="translate(138.195375 201.870437) scale(0.1 -0.1)">
     <use xlink:href="#DejaVuSans-33"/>
    </g>
   </g>
   <g id="text_31">
    <!-- 3 -->
    <g transform="translate(144.688466 201.870437) scale(0.1 -0.1)">
     <use xlink:href="#DejaVuSans-33"/>
    </g>
   </g>
   <g id="text_32">
    <!-- 5 -->
    <g transform="translate(151.181557 145.550437) scale(0.1 -0.1)">
     <use xlink:href="#DejaVuSans-35"/>
    </g>
   </g>
   <g id="text_33">
    <!-- 2 -->
    <g transform="translate(157.674648 230.030437) scale(0.1 -0.1)">
     <use xlink:href="#DejaVuSans-32"/>
    </g>
   </g>
   <g id="text_34">
    <!-- 1 -->
    <g transform="translate(164.167739 258.190437) scale(0.1 -0.1)">
     <use xlink:href="#DejaVuSans-31"/>
    </g>
   </g>
   <g id="text_35">
    <!-- 4 -->
    <g transform="translate(170.66083 173.710437) scale(0.1 -0.1)">
     <use xlink:href="#DejaVuSans-34"/>
    </g>
   </g>
   <g id="text_36">
    <!-- 3 -->
    <g transform="translate(177.15392 201.870437) scale(0.1 -0.1)">
     <use xlink:href="#DejaVuSans-33"/>
    </g>
   </g>
   <g id="text_37">
    <!-- 2 -->
    <g transform="translate(183.647011 230.030437) scale(0.1 -0.1)">
     <use xlink:href="#DejaVuSans-32"/>
    </g>
   </g>
   <g id="text_38">
    <!-- 1 -->
    <g transform="translate(190.140102 258.190437) scale(0.1 -0.1)">
     <use xlink:href="#DejaVuSans-31"/>
    </g>
   </g>
   <g id="text_39">
    <!-- 2 -->
    <g transform="translate(196.633193 230.030437) scale(0.1 -0.1)">
     <use xlink:href="#DejaVuSans-32"/>
    </g>
   </g>
   <g id="text_40">
    <!-- 2 -->
    <g transform="translate(203.126284 230.030437) scale(0.1 -0.1)">
     <use xlink:href="#DejaVuSans-32"/>
    </g>
   </g>
   <g id="text_41">
    <!-- 5 -->
    <g transform="translate(209.619375 145.550437) scale(0.1 -0.1)">
     <use xlink:href="#DejaVuSans-35"/>
    </g>
   </g>
   <g id="text_42">
    <!-- 1 -->
    <g transform="translate(216.112466 258.190437) scale(0.1 -0.1)">
     <use xlink:href="#DejaVuSans-31"/>
    </g>
   </g>
   <g id="text_43">
    <!-- 2 -->
    <g transform="translate(229.098648 230.030437) scale(0.1 -0.1)">
     <use xlink:href="#DejaVuSans-32"/>
    </g>
   </g>
   <g id="text_44">
    <!-- 1 -->
    <g transform="translate(235.591739 258.190437) scale(0.1 -0.1)">
     <use xlink:href="#DejaVuSans-31"/>
    </g>
   </g>
   <g id="text_45">
    <!-- 1 -->
    <g transform="translate(242.08483 258.190437) scale(0.1 -0.1)">
     <use xlink:href="#DejaVuSans-31"/>
    </g>
   </g>
   <g id="text_46">
    <!-- 1 -->
    <g transform="translate(255.071011 258.190437) scale(0.1 -0.1)">
     <use xlink:href="#DejaVuSans-31"/>
    </g>
   </g>
   <g id="text_47">
    <!-- 2 -->
    <g transform="translate(261.564102 230.030437) scale(0.1 -0.1)">
     <use xlink:href="#DejaVuSans-32"/>
    </g>
   </g>
   <g id="text_48">
    <!-- 1 -->
    <g transform="translate(274.550284 258.190437) scale(0.1 -0.1)">
     <use xlink:href="#DejaVuSans-31"/>
    </g>
   </g>
   <g id="text_49">
    <!-- 2 -->
    <g transform="translate(281.043375 230.030437) scale(0.1 -0.1)">
     <use xlink:href="#DejaVuSans-32"/>
    </g>
   </g>
   <g id="text_50">
    <!-- 1 -->
    <g transform="translate(287.536466 258.190437) scale(0.1 -0.1)">
     <use xlink:href="#DejaVuSans-31"/>
    </g>
   </g>
   <g id="text_51">
    <!-- 1 -->
    <g transform="translate(294.029557 258.190437) scale(0.1 -0.1)">
     <use xlink:href="#DejaVuSans-31"/>
    </g>
   </g>
   <g id="text_52">
    <!-- 1 -->
    <g transform="translate(300.522648 258.190437) scale(0.1 -0.1)">
     <use xlink:href="#DejaVuSans-31"/>
    </g>
   </g>
   <g id="text_53">
    <!-- 1 -->
    <g transform="translate(320.00192 258.190437) scale(0.1 -0.1)">
     <use xlink:href="#DejaVuSans-31"/>
    </g>
   </g>
   <g id="text_54">
    <!-- 1 -->
    <g transform="translate(365.453557 258.190437) scale(0.1 -0.1)">
     <use xlink:href="#DejaVuSans-31"/>
    </g>
   </g>
   <g id="text_55">
    <!-- Distribution of URLs found for each query (Total queries: 100) -->
    <g transform="translate(28.162813 16.318125) scale(0.12 -0.12)">
     <defs>
      <path id="DejaVuSans-44" d="M 1259 4147 
L 1259 519 
L 2022 519 
Q 2988 519 3436 956 
Q 3884 1394 3884 2338 
Q 3884 3275 3436 3711 
Q 2988 4147 2022 4147 
L 1259 4147 
z
M 628 4666 
L 1925 4666 
Q 3281 4666 3915 4102 
Q 4550 3538 4550 2338 
Q 4550 1131 3912 565 
Q 3275 0 1925 0 
L 628 0 
L 628 4666 
z
" transform="scale(0.015625)"/>
      <path id="DejaVuSans-69" d="M 603 3500 
L 1178 3500 
L 1178 0 
L 603 0 
L 603 3500 
z
M 603 4863 
L 1178 4863 
L 1178 4134 
L 603 4134 
L 603 4863 
z
" transform="scale(0.015625)"/>
      <path id="DejaVuSans-74" d="M 1172 4494 
L 1172 3500 
L 2356 3500 
L 2356 3053 
L 1172 3053 
L 1172 1153 
Q 1172 725 1289 603 
Q 1406 481 1766 481 
L 2356 481 
L 2356 0 
L 1766 0 
Q 1100 0 847 248 
Q 594 497 594 1153 
L 594 3053 
L 172 3053 
L 172 3500 
L 594 3500 
L 594 4494 
L 1172 4494 
z
" transform="scale(0.015625)"/>
      <path id="DejaVuSans-61" d="M 2194 1759 
Q 1497 1759 1228 1600 
Q 959 1441 959 1056 
Q 959 750 1161 570 
Q 1363 391 1709 391 
Q 2188 391 2477 730 
Q 2766 1069 2766 1631 
L 2766 1759 
L 2194 1759 
z
M 3341 1997 
L 3341 0 
L 2766 0 
L 2766 531 
Q 2569 213 2275 61 
Q 1981 -91 1556 -91 
Q 1019 -91 701 211 
Q 384 513 384 1019 
Q 384 1609 779 1909 
Q 1175 2209 1959 2209 
L 2766 2209 
L 2766 2266 
Q 2766 2663 2505 2880 
Q 2244 3097 1772 3097 
Q 1472 3097 1187 3025 
Q 903 2953 641 2809 
L 641 3341 
Q 956 3463 1253 3523 
Q 1550 3584 1831 3584 
Q 2591 3584 2966 3190 
Q 3341 2797 3341 1997 
z
" transform="scale(0.015625)"/>
      <path id="DejaVuSans-68" d="M 3513 2113 
L 3513 0 
L 2938 0 
L 2938 2094 
Q 2938 2591 2744 2837 
Q 2550 3084 2163 3084 
Q 1697 3084 1428 2787 
Q 1159 2491 1159 1978 
L 1159 0 
L 581 0 
L 581 4863 
L 1159 4863 
L 1159 2956 
Q 1366 3272 1645 3428 
Q 1925 3584 2291 3584 
Q 2894 3584 3203 3211 
Q 3513 2838 3513 2113 
z
" transform="scale(0.015625)"/>
      <path id="DejaVuSans-28" d="M 1984 4856 
Q 1566 4138 1362 3434 
Q 1159 2731 1159 2009 
Q 1159 1288 1364 580 
Q 1569 -128 1984 -844 
L 1484 -844 
Q 1016 -109 783 600 
Q 550 1309 550 2009 
Q 550 2706 781 3412 
Q 1013 4119 1484 4856 
L 1984 4856 
z
" transform="scale(0.015625)"/>
      <path id="DejaVuSans-54" d="M -19 4666 
L 3928 4666 
L 3928 4134 
L 2272 4134 
L 2272 0 
L 1638 0 
L 1638 4134 
L -19 4134 
L -19 4666 
z
" transform="scale(0.015625)"/>
      <path id="DejaVuSans-6c" d="M 603 4863 
L 1178 4863 
L 1178 0 
L 603 0 
L 603 4863 
z
" transform="scale(0.015625)"/>
      <path id="DejaVuSans-3a" d="M 750 794 
L 1409 794 
L 1409 0 
L 750 0 
L 750 794 
z
M 750 3309 
L 1409 3309 
L 1409 2516 
L 750 2516 
L 750 3309 
z
" transform="scale(0.015625)"/>
      <path id="DejaVuSans-29" d="M 513 4856 
L 1013 4856 
Q 1481 4119 1714 3412 
Q 1947 2706 1947 2009 
Q 1947 1309 1714 600 
Q 1481 -109 1013 -844 
L 513 -844 
Q 928 -128 1133 580 
Q 1338 1288 1338 2009 
Q 1338 2731 1133 3434 
Q 928 4138 513 4856 
z
" transform="scale(0.015625)"/>
     </defs>
     <use xlink:href="#DejaVuSans-44"/>
     <use xlink:href="#DejaVuSans-69" x="77.001953"/>
     <use xlink:href="#DejaVuSans-73" x="104.785156"/>
     <use xlink:href="#DejaVuSans-74" x="156.884766"/>
     <use xlink:href="#DejaVuSans-72" x="196.09375"/>
     <use xlink:href="#DejaVuSans-69" x="237.207031"/>
     <use xlink:href="#DejaVuSans-62" x="264.990234"/>
     <use xlink:href="#DejaVuSans-75" x="328.466797"/>
     <use xlink:href="#DejaVuSans-74" x="391.845703"/>
     <use xlink:href="#DejaVuSans-69" x="431.054688"/>
     <use xlink:href="#DejaVuSans-6f" x="458.837891"/>
     <use xlink:href="#DejaVuSans-6e" x="520.019531"/>
     <use xlink:href="#DejaVuSans-20" x="583.398438"/>
     <use xlink:href="#DejaVuSans-6f" x="615.185547"/>
     <use xlink:href="#DejaVuSans-66" x="676.367188"/>
     <use xlink:href="#DejaVuSans-20" x="711.572266"/>
     <use xlink:href="#DejaVuSans-55" x="743.359375"/>
     <use xlink:href="#DejaVuSans-52" x="816.552734"/>
     <use xlink:href="#DejaVuSans-4c" x="886.035156"/>
     <use xlink:href="#DejaVuSans-73" x="941.748047"/>
     <use xlink:href="#DejaVuSans-20" x="993.847656"/>
     <use xlink:href="#DejaVuSans-66" x="1025.634766"/>
     <use xlink:href="#DejaVuSans-6f" x="1060.839844"/>
     <use xlink:href="#DejaVuSans-75" x="1122.021484"/>
     <use xlink:href="#DejaVuSans-6e" x="1185.400391"/>
     <use xlink:href="#DejaVuSans-64" x="1248.779297"/>
     <use xlink:href="#DejaVuSans-20" x="1312.255859"/>
     <use xlink:href="#DejaVuSans-66" x="1344.042969"/>
     <use xlink:href="#DejaVuSans-6f" x="1379.248047"/>
     <use xlink:href="#DejaVuSans-72" x="1440.429688"/>
     <use xlink:href="#DejaVuSans-20" x="1481.542969"/>
     <use xlink:href="#DejaVuSans-65" x="1513.330078"/>
     <use xlink:href="#DejaVuSans-61" x="1574.853516"/>
     <use xlink:href="#DejaVuSans-63" x="1636.132812"/>
     <use xlink:href="#DejaVuSans-68" x="1691.113281"/>
     <use xlink:href="#DejaVuSans-20" x="1754.492188"/>
     <use xlink:href="#DejaVuSans-71" x="1786.279297"/>
     <use xlink:href="#DejaVuSans-75" x="1849.755859"/>
     <use xlink:href="#DejaVuSans-65" x="1913.134766"/>
     <use xlink:href="#DejaVuSans-72" x="1974.658203"/>
     <use xlink:href="#DejaVuSans-79" x="2015.771484"/>
     <use xlink:href="#DejaVuSans-20" x="2074.951172"/>
     <use xlink:href="#DejaVuSans-28" x="2106.738281"/>
     <use xlink:href="#DejaVuSans-54" x="2145.751953"/>
     <use xlink:href="#DejaVuSans-6f" x="2189.835938"/>
     <use xlink:href="#DejaVuSans-74" x="2251.017578"/>
     <use xlink:href="#DejaVuSans-61" x="2290.226562"/>
     <use xlink:href="#DejaVuSans-6c" x="2351.505859"/>
     <use xlink:href="#DejaVuSans-20" x="2379.289062"/>
     <use xlink:href="#DejaVuSans-71" x="2411.076172"/>
     <use xlink:href="#DejaVuSans-75" x="2474.552734"/>
     <use xlink:href="#DejaVuSans-65" x="2537.931641"/>
     <use xlink:href="#DejaVuSans-72" x="2599.455078"/>
     <use xlink:href="#DejaVuSans-69" x="2640.568359"/>
     <use xlink:href="#DejaVuSans-65" x="2668.351562"/>
     <use xlink:href="#DejaVuSans-73" x="2729.875"/>
     <use xlink:href="#DejaVuSans-3a" x="2781.974609"/>
     <use xlink:href="#DejaVuSans-20" x="2815.666016"/>
     <use xlink:href="#DejaVuSans-31" x="2847.453125"/>
     <use xlink:href="#DejaVuSans-30" x="2911.076172"/>
     <use xlink:href="#DejaVuSans-30" x="2974.699219"/>
     <use xlink:href="#DejaVuSans-29" x="3038.322266"/>
    </g>
   </g>
   <g id="legend_1">
    <g id="patch_107">
     <path d="M 324.148125 44.99625 
L 384.360625 44.99625 
Q 386.360625 44.99625 386.360625 42.99625 
L 386.360625 29.318125 
Q 386.360625 27.318125 384.360625 27.318125 
L 324.148125 27.318125 
Q 322.148125 27.318125 322.148125 29.318125 
L 322.148125 42.99625 
Q 322.148125 44.99625 324.148125 44.99625 
z
" style="fill: #ffffff; opacity: 0.8; stroke: #cccccc; stroke-linejoin: miter"/>
    </g>
    <g id="patch_108">
     <path d="M 326.148125 38.916562 
L 346.148125 38.916562 
L 346.148125 31.916562 
L 326.148125 31.916562 
z
" style="fill: #1f77b4; fill-opacity: 0.5; stroke: #000000; stroke-linejoin: miter"/>
    </g>
    <g id="text_56">
     <!-- count -->
     <g transform="translate(354.148125 38.916562) scale(0.1 -0.1)">
      <use xlink:href="#DejaVuSans-63"/>
      <use xlink:href="#DejaVuSans-6f" x="54.980469"/>
      <use xlink:href="#DejaVuSans-75" x="116.162109"/>
      <use xlink:href="#DejaVuSans-6e" x="179.541016"/>
      <use xlink:href="#DejaVuSans-74" x="242.919922"/>
     </g>
    </g>
   </g>
  </g>
 </g>
 <defs>
  <clipPath id="pd9abcd3117">
   <rect x="34.240625" y="22.318125" width="357.12" height="266.112"/>
  </clipPath>
 </defs>
</svg>
